<svg width="176" height="201" viewBox="0 0 176 201" fill="none" xmlns="http://www.w3.org/2000/svg">
<path d="M66.167 110.478C42.7777 152.155 38.3217 176.289 48.405 196.968C48.8431 197.867 47.859 198.836 46.992 198.339C5.80212 174.702 -0.348076 133.534 4.27086 114C8.81006 94.8033 19.9293 80.8218 25.7926 62.7861C26.067 61.9419 27.2239 61.8185 27.6353 62.6052C32.6353 72.1668 34.0733 79.218 34.0379 90.9841C34.035 91.9463 35.2698 92.3667 35.8576 91.6048C64.549 54.4156 73.1278 34.0943 72.5487 3.91636C72.5332 3.10964 73.434 2.60618 74.1073 3.05076C101.495 21.1338 112.891 37.9402 127.475 73.2253C127.733 73.8502 128.532 74.0566 129.024 73.5933C135.284 67.7033 136.028 59.9571 134.393 42.8739C134.294 41.8446 135.664 41.3989 136.248 42.2519C194.501 127.25 177.837 162.409 121.854 198.196C121.017 198.731 119.976 197.854 120.376 196.944C134.173 165.496 135.343 136.341 90.0191 86.2134C89.3774 85.5037 88.1793 86.0016 88.2561 86.9553C89.9227 107.658 87.9727 119.118 76.536 134.045C75.9886 134.759 74.8568 134.423 74.7671 133.527C73.8105 123.978 72.464 118.154 67.8761 110.434C67.489 109.783 66.5378 109.817 66.167 110.478Z" fill="url(#paint0_radial_2_27)" stroke="black" stroke-width="5"/>
<defs>
<radialGradient id="paint0_radial_2_27" cx="0" cy="0" r="1" gradientUnits="userSpaceOnUse" gradientTransform="translate(88 146.5) rotate(90) scale(365 312.841)">
<stop stop-color="#48919E"/>
<stop offset="1" stop-color="#30626B" stop-opacity="0"/>
</radialGradient>
</defs>
</svg>
